<?xml version="1.0" standalone="no"?>
<!DOCTYPE svg PUBLIC "-//W3C//DTD SVG 20010904//EN"
 "http://www.w3.org/TR/2001/REC-SVG-20010904/DTD/svg10.dtd">
<svg version="1.0" xmlns="http://www.w3.org/2000/svg"
 width="1024.000000pt" height="1024.000000pt" viewBox="0 0 1024.000000 1024.000000"
 preserveAspectRatio="xMidYMid meet">

<g transform="translate(0.000000,1024.000000) scale(0.100000,-0.100000)"
fill="#000000" stroke="none">
<path d="M5191 8766 c-7 -8 -10 -20 -6 -26 4 -7 1 -10 -7 -8 -8 2 -33 -17 -56
-41 -32 -34 -39 -47 -32 -61 7 -13 4 -22 -9 -34 -11 -10 -22 -13 -25 -8 -3 6
1 12 9 16 8 3 15 13 15 23 0 14 -5 13 -27 -10 l-28 -27 27 -27 c26 -25 28 -26
46 -10 23 21 29 21 29 3 0 -8 -6 -12 -14 -9 -9 3 -13 -3 -13 -21 0 -17 -5 -26
-15 -26 -9 0 -18 -7 -21 -15 -12 -30 -25 -14 -18 21 5 26 3 35 -4 30 -6 -4 -8
-14 -5 -23 6 -15 5 -16 -9 -3 -13 12 -13 17 -1 28 17 18 17 27 -4 43 -10 7
-15 10 -12 6 4 -4 -14 -28 -39 -52 -41 -41 -44 -46 -29 -58 16 -11 16 -14 1
-36 -13 -18 -18 -20 -25 -10 -4 7 -11 10 -15 6 -4 -3 -2 -13 5 -21 9 -11 8
-14 -6 -12 -11 0 -17 -5 -17 -16 1 -10 -3 -15 -8 -12 -6 4 -7 -2 -3 -16 4 -14
3 -20 -3 -16 -5 3 -12 -1 -15 -8 -4 -9 -16 -14 -34 -12 -37 5 -64 -20 -57 -50
5 -18 0 -29 -17 -43 -13 -11 -26 -17 -29 -14 -3 2 6 13 20 23 19 14 22 21 12
32 -9 12 -6 20 16 41 16 15 31 24 35 20 4 -3 7 -1 7 5 0 6 6 9 13 7 18 -7 29
5 55 56 23 49 63 93 49 55 -6 -16 -5 -17 8 -6 15 12 15 14 -1 23 -15 9 -45
-18 -187 -164 -93 -96 -224 -230 -292 -299 -110 -112 -122 -127 -110 -143 8
-11 16 -14 19 -8 4 5 -2 14 -11 20 -10 6 -13 11 -6 11 6 0 15 -5 18 -10 4 -6
10 -8 15 -5 5 3 11 1 14 -4 14 -22 -38 -35 -55 -15 -10 13 -21 6 -71 -43 -58
-57 -68 -76 -47 -89 8 -4 9 1 4 17 -5 20 -4 21 5 9 10 -13 11 -13 6 2 -3 11 6
26 26 44 30 24 33 25 45 8 16 -21 16 -31 3 -39 -5 -3 -7 0 -4 8 9 23 -16 31
-34 12 -16 -17 -16 -17 1 -12 11 4 16 3 12 -4 -4 -6 -13 -8 -20 -5 -14 5 -27
-28 -31 -77 -1 -17 2 -25 8 -21 6 4 8 2 4 -4 -10 -16 70 -152 131 -222 7 -8
36 -44 65 -80 28 -36 94 -108 145 -160 l94 -95 257 264 258 263 38 -43 c52
-58 169 -183 278 -294 l88 -90 -259 -265 -259 -265 96 -105 c156 -171 205
-219 215 -213 6 4 7 1 3 -6 -9 -13 22 -54 34 -46 4 3 7 -1 6 -9 -1 -15 101
-128 369 -409 99 -104 269 -284 378 -400 109 -117 206 -218 215 -225 14 -11
70 41 447 416 236 236 448 442 470 459 64 48 118 72 194 84 129 20 239 -19
347 -122 l61 -59 -8 -62 c-18 -131 -62 -239 -140 -338 -23 -30 -158 -172 -299
-315 -141 -143 -321 -326 -400 -407 -80 -82 -148 -148 -152 -148 -4 0 -5 8 -2
18 4 13 3 14 -4 4 -5 -8 -12 -13 -16 -13 -3 1 -5 -2 -4 -6 2 -5 6 -7 10 -6 12
4 10 -11 -3 -24 -10 -10 156 -192 350 -383 42 -41 146 -147 231 -235 85 -88
158 -159 162 -157 5 1 7 -4 5 -11 -1 -6 4 -11 11 -9 8 1 11 -2 8 -7 -7 -11 19
-33 28 -23 4 4 6 2 4 -4 -2 -7 35 -51 81 -99 l85 -86 33 38 c148 168 224 283
282 428 37 93 81 253 95 350 5 34 1 28 -26 -35 -50 -117 -117 -222 -208 -325
-81 -91 -210 -218 -210 -207 0 7 -5 12 -11 12 -6 0 -9 -7 -5 -15 7 -20 3 -19
-25 7 -18 16 -20 20 -6 15 50 -18 29 43 -21 62 -15 5 -54 21 -86 35 -65 27
-114 41 -133 37 -7 -1 -13 3 -13 10 0 8 -4 8 -15 -1 -13 -11 -13 -15 -3 -21 9
-6 9 -9 1 -9 -28 0 -20 22 28 72 28 29 45 44 38 33 -13 -18 -13 -19 3 -6 10 7
16 16 13 20 -2 4 102 113 231 242 322 320 388 413 445 619 30 112 31 288 0
437 -29 141 -105 381 -152 482 -86 184 -109 210 -748 846 l-596 593 -11 -68
c-27 -158 -98 -297 -221 -431 -37 -41 -218 -225 -401 -409 -268 -269 -335
-331 -344 -320 -8 13 -9 13 -5 -1 8 -25 -8 -45 -26 -31 -7 7 -18 8 -22 4 -5
-4 -5 -1 -1 6 4 7 1 12 -8 12 -8 0 -21 8 -28 18 -7 9 -33 26 -58 37 -49 21
-62 33 -53 50 3 5 0 4 -8 -2 -7 -7 -26 -13 -41 -13 -17 0 -31 -7 -35 -15 -5
-14 -8 -14 -24 1 -12 11 -16 20 -9 24 13 8 2 40 -13 40 -6 0 -19 8 -30 18 -14
12 -18 12 -12 2 21 -35 3 -63 -22 -35 -4 4 -2 5 5 0 10 -5 13 -1 11 16 -2 13
1 26 6 28 6 3 18 15 28 28 10 13 23 23 29 23 6 0 5 -7 -3 -17 -13 -16 -12 -17
3 -4 10 7 15 18 12 23 -4 6 106 123 244 262 349 351 438 481 502 731 29 113
66 426 50 425 -3 0 -17 -21 -32 -46 -15 -24 -34 -47 -41 -50 -13 -5 -104 84
-297 289 -54 57 -89 86 -98 82 -8 -3 -22 0 -30 7 -12 10 -14 10 -8 1 4 -7 3
-13 -3 -13 -5 0 -11 5 -13 11 -2 7 -4 -4 -5 -24 -1 -30 6 -44 38 -77 21 -22
39 -45 39 -50 0 -6 -33 -10 -80 -10 l-80 0 0 95 c0 60 4 95 11 95 5 0 8 4 5 9
-3 5 1 14 9 21 14 11 14 15 -1 31 -22 25 -9 24 22 0 l25 -20 -22 -12 c-20 -10
-21 -12 -5 -21 12 -7 21 -7 29 1 8 8 19 4 39 -16 15 -15 28 -22 28 -17 0 5
-26 36 -58 67 -47 46 -61 55 -70 45 -6 -8 -7 -19 -2 -27 12 -20 -8 -58 -34
-63 -45 -8 -56 1 -56 47 0 35 5 48 26 64 33 26 40 26 40 1 0 -13 -5 -19 -13
-16 -21 9 -41 -4 -36 -23 5 -18 33 -25 33 -8 0 5 11 18 24 28 l24 19 -36 37
c-21 21 -40 36 -44 35 -5 -1 -8 2 -8 7 0 6 -45 56 -101 113 -55 57 -132 136
-170 176 -38 40 -69 69 -69 64 0 -5 6 -15 14 -21 8 -7 12 -21 9 -31 -3 -11 0
-27 7 -35 15 -18 37 -21 23 -2 -33 42 -14 40 32 -4 29 -29 52 -56 49 -61 -3
-4 -2 -8 3 -8 12 0 73 -56 73 -67 0 -5 11 -19 25 -31 14 -13 23 -28 19 -34 -4
-6 -3 -8 4 -4 6 3 13 2 16 -3 3 -5 -1 -11 -8 -14 -17 -7 -18 -45 -2 -66 9 -12
5 -13 -23 -8 -18 4 -60 7 -92 7 l-59 0 0 40 0 40 -40 0 c-36 0 -40 3 -40 25 0
23 -4 25 -40 25 l-40 0 0 55 c0 42 3 55 15 55 11 0 15 12 15 45 0 44 1 45 28
40 16 -3 21 -2 12 2 -32 16 -64 43 -57 49 3 3 21 -4 39 -16 l33 -22 -25 24
c-14 14 -30 33 -37 44 -6 10 -16 18 -22 17 -6 -2 -11 2 -11 7 0 6 6 10 13 10
18 0 49 -34 40 -43 -3 -4 -1 -7 5 -7 19 0 14 15 -16 44 -25 23 -31 25 -41 12z
m-18 -66 c-3 -11 -14 -25 -25 -31 -10 -5 -16 -14 -13 -19 3 -5 1 -11 -5 -15
-5 -3 -10 -15 -10 -26 0 -10 -4 -19 -9 -19 -6 0 -6 12 -1 29 5 20 5 31 -3 34
-6 2 4 13 21 26 18 12 32 29 32 37 0 8 4 13 9 10 5 -3 7 -15 4 -26z m32 3 c-3
-9 2 -24 11 -34 11 -12 13 -19 5 -19 -7 0 -9 -4 -6 -10 3 -5 -1 -10 -9 -10 -9
0 -16 5 -16 10 0 6 -7 10 -15 10 -8 0 -15 4 -15 9 0 5 7 14 15 21 8 7 15 21
15 32 0 11 5 16 11 13 6 -4 8 -14 4 -22z m-115 -133 c0 -5 -5 -10 -11 -10 -5
0 -7 5 -4 10 3 6 8 10 11 10 2 0 4 -4 4 -10z m-74 -26 c-9 -9 -20 -14 -23 -10
-4 3 2 13 13 20 25 18 31 12 10 -10z m-6 -34 c13 -11 20 -23 16 -27 -4 -4 -10
-3 -14 2 -4 6 -14 16 -23 23 -14 10 -18 10 -22 -2 -4 -10 -1 -13 9 -9 7 3 14
0 14 -6 0 -12 -23 -15 -33 -5 -8 8 10 44 22 44 4 0 18 -9 31 -20z m120 -20 c0
-5 -2 -10 -4 -10 -3 0 -8 5 -11 10 -3 6 -1 10 4 10 6 0 11 -4 11 -10z m-179
-83 c-10 -9 -11 -8 -5 6 3 10 9 15 12 12 3 -3 0 -11 -7 -18z m-107 -32 c-4 -8
-11 -15 -16 -15 -6 0 -5 6 2 15 7 8 14 15 16 15 2 0 1 -7 -2 -15z m726 6 c0
-11 -31 -24 -39 -16 -3 3 1 10 9 15 19 12 30 12 30 1z m-600 -22 c0 -4 -7 -6
-15 -3 -8 4 -15 10 -15 15 0 4 7 6 15 3 8 -4 15 -10 15 -15z m622 -12 c-2 -11
3 -15 18 -12 11 2 18 0 15 -5 -3 -5 -1 -11 5 -15 16 -10 12 -23 -12 -36 l-23
-12 20 23 20 23 -22 -7 c-18 -6 -23 -3 -23 9 0 11 -5 15 -15 11 -17 -6 -45 2
-45 14 0 9 42 29 55 26 6 -2 9 -10 7 -19z m-305 -42 c1 -15 0 -15 -3 -3 -3 9
-13 19 -22 22 -12 3 -12 4 3 3 12 -1 21 -10 22 -22z m-167 0 c0 -11 -11 -15
-40 -15 -29 0 -40 4 -40 15 0 11 11 15 40 15 29 0 40 -4 40 -15z m-323 -22 c1
-22 -1 -24 -8 -10 -6 9 -7 22 -4 27 9 14 10 13 12 -17z m-67 -40 c-15 -11 -20
-24 -18 -46 3 -29 0 -32 -22 -29 -15 1 -30 -4 -37 -15 -12 -16 -13 -16 -13 1
0 9 -4 15 -9 11 -6 -3 -6 -18 -1 -37 12 -41 6 -49 -33 -41 -18 3 -29 2 -25 -2
4 -4 0 -14 -8 -22 -9 -9 -12 -23 -8 -37 6 -20 5 -20 -12 -4 -16 16 -18 16 -35
-3 -10 -11 -21 -20 -26 -20 -4 1 -8 -16 -8 -38 0 -38 0 -38 -37 -36 -27 2 -38
-2 -38 -11 0 -8 6 -13 12 -11 7 1 14 -8 16 -21 3 -20 1 -22 -15 -14 -10 6 -27
18 -38 27 -16 14 -17 16 -3 11 10 -3 17 -2 16 2 -1 4 4 17 12 29 13 21 16 21
32 6 20 -18 25 -4 6 16 -11 10 -9 12 7 9 12 -2 21 3 21 12 1 8 2 21 3 28 0 6
7 12 14 12 7 0 18 9 25 20 7 11 18 17 27 14 11 -5 14 0 13 17 -2 15 2 23 10
22 6 -2 12 2 12 8 0 6 6 9 14 6 14 -6 36 10 36 26 0 5 -7 4 -15 -3 -32 -27
-13 4 30 48 25 25 45 41 45 36 0 -6 -5 -15 -12 -22 -8 -8 -8 -12 -1 -12 16 0
36 28 28 39 -3 6 2 22 12 35 13 18 21 21 31 14 10 -9 8 -14 -8 -25z m530 -18
c7 -9 10 -18 7 -22 -8 -7 -37 15 -37 28 0 14 16 11 30 -6z m-80 -5 c0 -5 -4
-10 -10 -10 -5 0 -10 5 -10 10 0 6 5 10 10 10 6 0 10 -4 10 -10z m50 -30 c5 0
10 -5 10 -11 0 -8 -4 -8 -14 0 -13 11 -46 6 -46 -8 0 -16 -60 -71 -77 -70 -14
0 -15 2 -3 6 24 9 61 46 71 71 5 13 13 20 19 17 6 -3 10 4 11 17 l0 23 9 -22
c5 -13 14 -23 20 -23z m-420 13 c0 -7 -7 -13 -15 -13 -8 0 -15 6 -15 13 0 8 7
14 15 14 8 0 15 -6 15 -14z m340 -7 c0 -21 -23 -54 -40 -59 l-22 -6 21 20 c11
11 21 26 21 34 0 8 5 15 10 15 6 0 10 -2 10 -4z m605 -16 c-3 -5 -11 -10 -16
-10 -6 0 -7 5 -4 10 3 6 11 10 16 10 6 0 7 -4 4 -10z m-985 -15 c0 -8 -7 -15
-16 -15 -14 0 -14 3 -4 15 7 8 14 15 16 15 2 0 4 -7 4 -15z m550 -25 c0 -5 -5
-10 -11 -10 -5 0 -7 5 -4 10 3 6 8 10 11 10 2 0 4 -4 4 -10z m32 -22 c-7 -7
-12 -8 -12 -2 0 14 12 26 19 19 2 -3 -1 -11 -7 -17z m-294 5 c-21 -5 -24 -33
-4 -33 14 0 30 -29 21 -38 -3 -3 -5 -1 -5 5 0 6 -7 13 -15 17 -13 4 -14 2 -5
-14 10 -18 8 -19 -14 -10 -17 6 -27 6 -32 -2 -5 -7 -2 -8 7 -3 8 5 7 0 -3 -12
-23 -26 -23 -47 -1 -38 12 4 8 -4 -10 -23 -20 -21 -35 -28 -49 -24 -18 4 -20
2 -16 -16 4 -14 -3 -29 -23 -48 -35 -34 -39 -25 -5 9 l25 25 -24 -2 c-13 0
-21 -4 -19 -8 6 -9 -18 -58 -28 -58 -5 0 -7 -4 -4 -8 3 -5 -7 -21 -22 -35
l-27 -26 -3 70 c-2 58 0 69 14 69 9 0 18 9 21 20 3 11 11 20 19 20 7 0 22 9
33 21 27 29 77 23 73 -9 -2 -22 -1 -22 15 -7 16 16 16 18 0 27 -22 12 -22 38
1 39 15 0 15 1 -2 8 -17 6 -17 8 -4 14 9 3 19 19 23 36 6 29 21 39 60 39 16 0
17 -1 3 -5z m262 -35 c0 -6 -7 -5 -15 2 -8 7 -15 17 -15 22 0 6 7 5 15 -2 8
-7 15 -17 15 -22z m502 17 c10 4 24 -4 37 -21 11 -15 21 -23 21 -19 0 5 18
-11 40 -36 25 -28 36 -47 30 -53 -14 -14 -12 -23 6 -30 12 -4 15 -2 10 9 -4
12 -2 13 12 6 29 -16 54 -48 43 -56 -6 -3 -11 -11 -11 -17 0 -7 4 -7 13 1 10
8 19 7 33 -5 18 -14 18 -15 -3 -5 -23 12 -40 0 -28 -19 3 -5 4 -10 1 -10 -3 0
-10 9 -16 21 -9 15 -8 24 1 35 6 8 9 15 5 15 -3 1 -10 2 -15 3 -5 0 -12 4 -16
8 -4 4 -13 4 -20 2 -7 -3 -16 0 -20 5 -3 6 -11 9 -16 6 -5 -4 -9 -2 -9 4 0 5
5 13 10 16 8 5 7 11 -1 21 -6 7 -15 11 -20 8 -5 -3 -18 4 -30 14 -12 12 -29
18 -40 15 -13 -4 -19 0 -19 11 0 9 -7 19 -16 23 -8 3 -13 12 -10 19 3 8 0 11
-10 7 -17 -6 -19 8 -2 25 8 8 14 8 18 2 4 -6 14 -8 22 -5z m-402 -40 c-7 -8
-17 -15 -22 -15 -11 0 14 29 26 30 5 0 3 -7 -4 -15z m-770 -25 c0 -13 -5 -18
-14 -14 -8 3 -12 12 -9 20 8 21 23 17 23 -6z m718 -6 l27 -27 -32 22 c-18 12
-33 24 -33 27 0 10 13 2 38 -22z m-768 -24 c0 -5 -5 -10 -11 -10 -5 0 -7 5 -4
10 3 6 8 10 11 10 2 0 4 -4 4 -10z m845 -28 c-11 -3 -14 -10 -10 -20 5 -13 2
-12 -15 3 -11 10 -20 23 -19 29 0 6 3 6 6 -1 2 -7 9 -13 15 -13 6 0 8 7 4 15
-4 12 -2 13 15 2 17 -10 17 -13 4 -15z m62 12 c-3 -3 -12 -4 -19 -1 -8 3 -5 6
6 6 11 1 17 -2 13 -5z m-7 -74 c-12 -7 -8 -15 19 -39 19 -17 33 -33 30 -35 -2
-2 -24 16 -49 40 -25 25 -38 42 -29 39 10 -4 20 -1 24 5 4 6 10 9 13 5 4 -3 0
-10 -8 -15z m94 -105 c-4 -8 -11 -15 -16 -15 -6 0 -5 6 2 15 7 8 14 15 16 15
2 0 1 -7 -2 -15z m-834 -10 c0 -9 -8 -18 -17 -21 -10 -3 -26 -10 -35 -15 -15
-7 -18 -5 -18 14 0 31 7 37 42 37 18 0 28 -5 28 -15z m890 -5 c0 -5 -2 -10 -4
-10 -3 0 -8 5 -11 10 -3 6 -1 10 4 10 6 0 11 -4 11 -10z m-919 -57 c-12 -20
-14 -14 -5 12 4 9 9 14 11 11 3 -2 0 -13 -6 -23z m49 14 c0 -2 -10 -12 -22
-23 l-23 -19 19 23 c18 21 26 27 26 19z m894 -22 c-4 -8 -11 -15 -16 -15 -6 0
-5 6 2 15 7 8 14 15 16 15 2 0 1 -7 -2 -15z m-1021 -70 c-3 -9 -8 -14 -10 -11
-3 3 -2 9 2 15 9 16 15 13 8 -4z m827 -1395 c0 -5 -2 -10 -4 -10 -3 0 -8 5
-11 10 -3 6 -1 10 4 10 6 0 11 -4 11 -10z m50 -36 c0 -8 -19 -13 -24 -6 -3 5
1 9 9 9 8 0 15 -2 15 -3z m65 -4 c-3 -5 -12 -10 -18 -10 -7 0 -6 4 3 10 19 12
23 12 15 0z m1985 -2175 c13 -14 21 -25 18 -25 -2 0 -15 11 -28 25 -13 14 -21
25 -18 25 2 0 15 -11 28 -25z"/>
<path d="M5550 8340 c0 -5 5 -10 11 -10 5 0 7 5 4 10 -3 6 -8 10 -11 10 -2 0
-4 -4 -4 -10z"/>
<path d="M4709 8243 c-13 -16 -12 -17 4 -4 9 7 17 15 17 17 0 8 -8 3 -21 -13z"/>
<path d="M4690 8180 c0 -5 5 -10 10 -10 6 0 10 5 10 10 0 6 -4 10 -10 10 -5 0
-10 -4 -10 -10z"/>
<path d="M4610 8100 c0 -5 5 -10 10 -10 6 0 10 5 10 10 0 6 -4 10 -10 10 -5 0
-10 -4 -10 -10z"/>
<path d="M4820 7825 c-7 -8 -8 -15 -2 -15 5 0 15 7 22 15 7 8 8 15 2 15 -5 0
-15 -7 -22 -15z"/>
<path d="M5820 8089 c-12 -8 -11 -9 5 -7 12 2 19 -2 17 -10 -1 -8 2 -11 8 -7
8 5 7 11 -1 21 -14 17 -10 16 -29 3z"/>
<path d="M5872 8052 c-9 -6 -6 -14 13 -32 14 -13 25 -20 25 -15 0 4 10 0 23
-11 20 -18 20 -17 -2 8 -13 15 -29 26 -35 25 -6 -1 -10 6 -10 16 1 9 1 17 0
17 0 0 -7 -4 -14 -8z"/>
<path d="M5281 8594 c0 -11 3 -14 6 -6 3 7 2 16 -1 19 -3 4 -6 -2 -5 -13z"/>
<path d="M5330 8590 c0 -5 5 -10 10 -10 6 0 10 5 10 10 0 6 -4 10 -10 10 -5 0
-10 -4 -10 -10z"/>
<path d="M5300 8581 c0 -6 5 -13 10 -16 6 -3 10 1 10 9 0 9 -4 16 -10 16 -5 0
-10 -4 -10 -9z"/>
<path d="M5372 8510 c-7 -11 -8 -20 -3 -20 6 0 12 4 15 9 3 5 16 7 29 4 22 -5
22 -5 2 10 -26 21 -28 21 -43 -3z"/>
<path d="M5470 8430 c0 -5 5 -10 11 -10 5 0 7 5 4 10 -3 6 -8 10 -11 10 -2 0
-4 -4 -4 -10z"/>
<path d="M5465 8400 c3 -5 14 -10 23 -10 15 0 15 2 2 10 -20 13 -33 13 -25 0z"/>
<path d="M5440 8355 c0 -8 4 -15 8 -15 5 0 9 7 9 15 0 8 -4 15 -9 15 -4 0 -8
-7 -8 -15z"/>
<path d="M3461 7250 l-143 -151 68 -72 c38 -40 223 -229 411 -421 189 -192
343 -354 343 -360 0 -7 -3 -7 -8 -1 -4 6 -18 19 -31 30 l-24 20 13 -25 c10
-21 10 -23 -1 -12 -17 16 -32 15 -26 -2 4 -10 0 -12 -15 -8 -17 4 -20 2 -15
-11 7 -18 -17 -52 -81 -116 -42 -42 -44 -46 -40 -91 5 -49 -6 -85 -23 -75 -15
10 -10 -12 7 -29 8 -9 20 -14 25 -11 5 4 6 0 4 -7 -4 -9 99 -118 260 -278 145
-146 506 -507 802 -802 421 -422 540 -535 550 -526 10 8 12 7 8 -3 -3 -9 56
-78 161 -185 l166 -171 139 142 139 142 473 -475 c259 -262 509 -513 553 -559
45 -46 84 -83 87 -83 4 0 145 143 240 244 29 30 44 54 39 61 -4 7 -281 294
-617 636 -335 343 -702 719 -815 834 -507 519 -635 649 -1111 1130 -474 478
-1233 1247 -1325 1342 -23 24 -48 43 -56 43 -8 0 -79 -68 -157 -150z"/>
<path d="M3015 6790 c-3 -5 -3 -10 2 -10 4 0 -3 -6 -17 -13 -14 -7 -24 -21
-24 -30 1 -9 -1 -15 -5 -13 -7 5 -47 -22 -43 -29 1 -3 -1 -6 -5 -7 -15 -3 -48
-53 -45 -68 2 -11 0 -11 -5 -3 -6 8 -39 -18 -106 -87 -64 -64 -94 -101 -86
-106 8 -5 9 -3 4 6 -6 9 -4 11 4 5 9 -5 7 -13 -10 -31 -23 -24 -35 -32 -24
-15 3 5 1 12 -4 16 -14 8 -82 -55 -74 -68 3 -6 1 -7 -5 -3 -19 11 -139 -142
-202 -259 -38 -70 -152 -376 -181 -485 -30 -115 -49 -246 -49 -345 0 -49 -5
-121 -10 -159 -22 -177 28 -570 100 -788 54 -161 162 -352 267 -471 25 -28
153 -162 283 -297 130 -135 340 -355 467 -490 274 -291 339 -354 353 -345 6 3
8 10 6 14 -6 10 46 7 62 -3 7 -4 12 -12 12 -18 0 -6 -9 -3 -20 7 -20 18 -21
18 -43 -4 l-22 -23 22 11 c31 16 41 14 17 -3 -16 -13 -17 -17 -5 -28 8 -7 11
-8 8 -2 -11 20 16 33 53 25 25 -5 35 -12 34 -24 -2 -24 32 -13 69 21 15 14 27
22 27 18 0 -4 8 0 18 10 9 10 17 21 17 25 0 15 122 131 168 159 26 17 52 41
57 54 4 13 18 26 29 29 11 2 29 19 39 37 11 18 34 41 51 51 18 11 35 28 39 40
4 11 19 25 32 32 14 7 32 27 40 44 8 18 20 33 26 33 6 0 23 9 38 21 l26 20 0
-21 c0 -27 24 -22 28 6 2 10 5 25 7 32 3 7 3 14 2 16 -4 8 47 56 60 56 7 0 13
7 13 16 0 20 43 56 51 42 6 -10 34 12 41 32 2 6 13 12 25 12 14 2 19 7 15 17
-3 8 -1 12 5 8 22 -14 83 58 83 100 0 7 5 13 11 13 5 0 9 -8 8 -17 -3 -33 1
-37 15 -17 10 13 11 23 4 31 -8 10 -6 13 5 13 8 0 18 -6 20 -12 3 -7 6 -3 6 9
1 12 6 25 12 28 6 4 14 17 19 29 7 17 9 17 9 4 2 -43 44 -8 44 35 0 30 2 33
14 21 18 -18 19 -18 41 4 11 9 28 24 38 32 10 9 26 27 35 40 9 14 20 22 24 18
8 -8 -307 -328 -323 -328 -7 0 -12 -7 -12 -16 0 -9 -6 -14 -13 -11 -6 2 -19
-3 -27 -11 -13 -14 -12 -15 4 -9 16 6 17 5 6 -8 -7 -8 -17 -12 -24 -8 -6 3 -8
3 -4 -2 9 -9 -29 -65 -44 -65 -6 0 -5 7 3 18 13 15 12 16 -3 4 -9 -8 -15 -19
-12 -25 2 -7 -79 -95 -181 -196 -102 -102 -185 -188 -185 -193 0 -4 -6 -8 -14
-8 -7 0 -16 -9 -19 -21 -3 -12 -10 -18 -17 -14 -6 4 -9 1 -8 -7 2 -7 -3 -12
-10 -10 -8 1 -11 -1 -8 -6 6 -10 -45 -58 -57 -54 -5 1 -6 -1 -3 -6 7 -12 -68
-84 -79 -75 -4 5 -5 3 -2 -3 8 -13 -66 -87 -77 -77 -4 5 -6 1 -4 -7 2 -8 -3
-14 -10 -12 -8 1 -11 -1 -8 -6 7 -12 -48 -64 -59 -55 -4 5 -5 3 -2 -3 9 -17
-29 -49 -39 -33 -5 8 -3 10 6 4 9 -5 11 -4 6 4 -11 17 -25 3 -21 -20 4 -21 4
-21 -18 -3 -12 10 -16 12 -9 4 18 -21 15 -35 -5 -19 -36 29 32 -50 174 -201
81 -85 149 -156 153 -158 3 -1 40 36 81 82 41 47 76 85 79 85 6 1 415 -411
747 -751 l211 -217 479 486 c263 267 479 491 481 499 3 14 -73 98 -324 354
-83 85 -170 174 -192 198 -22 23 -44 42 -49 42 -10 0 -194 -187 -438 -444
-115 -122 -159 -175 -157 -190 1 -16 0 -18 -7 -7 -8 12 -16 9 -42 -17 -18 -18
-28 -32 -22 -32 6 0 14 5 16 10 3 6 4 5 3 -2 -1 -6 -8 -14 -14 -16 -10 -3
-381 366 -390 387 -7 20 885 914 902 903 5 -3 6 -1 3 5 -3 5 16 32 43 58 28
27 50 54 50 59 0 5 -325 332 -722 726 l-722 718 -247 -239 -246 -238 -270 272
c-149 150 -294 298 -322 331 -85 99 -119 228 -107 416 13 202 61 337 153 432
31 31 34 40 23 53 -10 12 -10 18 0 30 10 13 15 12 31 -8 10 -12 18 -16 19 -9
0 6 -5 12 -10 12 -6 0 -9 3 -9 8 5 31 -3 62 -16 62 -21 0 -19 28 3 33 16 4 16
5 0 6 -14 1 -18 10 -18 36 0 24 -5 35 -15 35 -12 0 -15 20 -15 120 0 66 4 120
9 120 5 0 14 14 21 30 11 27 10 33 -6 51 -10 11 -23 18 -28 15 -52 -21 -52
-21 -32 2 13 15 15 22 6 22 -10 0 -10 4 2 18 13 15 13 19 -4 35 -17 16 -23 14
-19 -7 1 -5 -5 -3 -14 4 -14 12 -13 25 3 25 4 0 13 4 20 8 11 7 17 -3 13 -25
-2 -15 17 -8 23 7 3 9 -1 18 -9 21 -8 4 -13 10 -10 14 3 5 1 11 -4 14 -5 4
-12 2 -16 -4z m-58 -117 c-3 -20 -9 -27 -25 -27 -12 0 -21 4 -20 9 1 6 9 9 16
7 7 -2 16 6 19 17 8 30 14 26 10 -6z m74 -70 c13 -16 12 -17 -3 -4 -10 7 -18
15 -18 17 0 8 8 3 21 -13z m-311 -137 c0 -2 -8 -10 -17 -17 -16 -13 -17 -12
-4 4 13 16 21 21 21 13z m-80 -86 c0 -5 -2 -10 -4 -10 -3 0 -8 5 -11 10 -3 6
-1 10 4 10 6 0 11 -4 11 -10z m11 -1347 c13 -16 12 -17 -3 -4 -17 13 -22 21
-14 21 2 0 10 -8 17 -17z m2339 -1267 c0 -2 -6 -9 -14 -15 -11 -9 -16 -9 -22
0 -4 7 -3 9 4 5 6 -3 13 -2 17 4 6 10 15 14 15 6z m-35 -36 c3 -5 1 -10 -4
-10 -6 0 -11 5 -11 10 0 6 2 10 4 10 3 0 8 -4 11 -10z m-85 -80 c0 -5 -4 -10
-10 -10 -5 0 -10 5 -10 10 0 6 5 10 10 10 6 0 10 -4 10 -10z m-190 -140 c0 -5
-5 -10 -11 -10 -5 0 -7 5 -4 10 3 6 8 10 11 10 2 0 4 -4 4 -10z m-93 -76 c-3
-3 -12 -4 -19 -1 -8 3 -5 6 6 6 11 1 17 -2 13 -5z m-1000 -688 c-6 -8 -15 -12
-19 -9 -4 2 -2 10 5 17 6 8 15 12 19 9 4 -2 2 -10 -5 -17z m2187 -218 c-4 -7
-54 -60 -110 -118 -56 -58 -117 -121 -134 -140 -17 -19 -97 -102 -177 -184
-129 -131 -147 -146 -156 -130 -11 20 -78 93 -157 172 -25 25 -39 42 -31 37 8
-4 17 -2 22 6 6 10 9 11 9 2 0 -7 5 -13 12 -13 6 0 20 -8 30 -17 17 -15 21
-15 29 -3 8 12 9 11 5 -5 -6 -19 -3 -20 57 -15 60 5 99 23 139 63 21 20 44 22
51 5 3 -7 3 2 0 21 -6 32 -5 33 16 22 21 -12 22 -11 25 12 0 6 11 13 24 15 12
2 22 10 22 18 0 8 5 14 10 14 6 0 10 6 10 14 0 20 42 49 50 36 4 -6 12 1 20
15 7 14 17 25 21 25 4 0 21 14 39 30 27 25 32 27 27 10 -3 -11 -4 -20 -2 -20
1 0 22 19 46 41 24 23 36 39 27 36 -12 -4 -15 -2 -11 9 3 9 9 11 17 5 7 -6 21
0 40 20 31 31 42 37 30 17z m-779 -338 c3 -5 1 -10 -4 -10 -6 0 -11 5 -11 10
0 6 2 10 4 10 3 0 8 -4 11 -10z"/>
<path d="M5575 2369 c-11 -17 1 -21 15 -4 8 9 8 15 2 15 -6 0 -14 -5 -17 -11z"/>
<path d="M5036 2148 c4 -7 27 -31 52 -53 l45 -40 -24 37 c-23 36 -86 84 -73
56z"/>
<path d="M5170 2060 c-18 -16 -21 -23 -12 -32 9 -9 12 -8 12 5 0 9 4 17 9 17
5 0 11 7 15 15 7 20 4 19 -24 -5z"/>
<path d="M3056 6691 c-4 -7 -5 -15 -2 -18 9 -9 19 4 14 18 -4 11 -6 11 -12 0z"/>
<path d="M3120 6683 c0 -5 9 -18 20 -28 11 -10 20 -16 20 -13 0 3 -9 15 -20
28 -11 13 -20 19 -20 13z"/>
<path d="M3085 6660 c3 -5 8 -10 11 -10 2 0 4 5 4 10 0 6 -5 10 -11 10 -5 0
-7 -4 -4 -10z"/>
<path d="M3200 6603 c0 -5 10 -18 23 -29 l22 -19 -20 25 c-11 14 -21 27 -22
29 -2 2 -3 0 -3 -6z"/>
<path d="M3121 6574 c0 -11 3 -14 6 -6 3 7 2 16 -1 19 -3 4 -6 -2 -5 -13z"/>
<path d="M3195 6560 c3 -5 8 -10 11 -10 2 0 4 5 4 10 0 6 -5 10 -11 10 -5 0
-7 -4 -4 -10z"/>
<path d="M5501 6311 c-8 -5 -9 -11 -3 -15 5 -3 12 1 16 9 6 17 6 18 -13 6z"/>
<path d="M5760 6221 c0 -6 4 -13 10 -16 6 -3 7 1 4 9 -7 18 -14 21 -14 7z"/>
<path d="M3090 6137 c0 -2 14 -16 30 -32 36 -35 40 -29 5 9 -21 23 -35 32 -35
23z"/>
<path d="M6989 5383 c-13 -15 -16 -22 -7 -14 9 7 21 10 25 8 5 -3 9 3 9 14 0
10 -1 19 -1 19 -1 0 -12 -12 -26 -27z"/>
<path d="M6819 5213 c-13 -16 -12 -17 4 -4 9 7 17 15 17 17 0 8 -8 3 -21 -13z"/>
<path d="M4020 5186 c0 -2 8 -10 18 -17 15 -13 16 -12 3 4 -13 16 -21 21 -21
13z"/>
<path d="M7069 4943 c-13 -16 -12 -17 4 -4 16 13 21 21 13 21 -2 0 -10 -8 -17
-17z"/>
<path d="M7575 4179 c-4 -6 -13 -8 -21 -5 -7 3 -15 2 -18 -2 -9 -14 33 -11 45
4 6 8 9 14 6 14 -3 0 -9 -5 -12 -11z"/>
<path d="M4821 3601 c-7 -5 -9 -11 -5 -14 5 -3 15 1 22 9 14 16 5 18 -17 5z"/>
<path d="M4512 3328 c-16 -16 -15 -28 2 -28 19 0 27 13 17 28 -5 9 -10 9 -19
0z"/>
<path d="M4487 3273 c-12 -18 21 -23 35 -5 11 15 11 16 -4 4 -13 -10 -17 -10
-20 0 -3 8 -6 9 -11 1z"/>
<path d="M4435 3190 c-3 -5 -12 -7 -20 -3 -8 3 -15 3 -15 0 0 -13 30 -14 40
-1 7 8 10 14 7 14 -3 0 -8 -4 -12 -10z"/>
<path d="M4350 3155 c-7 -9 -8 -15 -2 -15 5 0 12 7 16 15 3 8 4 15 2 15 -2 0
-9 -7 -16 -15z"/>
<path d="M4323 3115 c0 -8 4 -15 9 -15 4 0 8 4 8 9 0 6 -4 12 -8 15 -5 3 -9
-1 -9 -9z"/>
<path d="M4187 3013 c-3 -5 -2 -15 2 -22 7 -10 10 -10 16 -1 4 6 3 16 -3 22
-5 5 -12 6 -15 1z"/>
<path d="M7114 2958 l-19 -23 23 19 c12 11 22 21 22 23 0 8 -8 2 -26 -19z"/>
<path d="M4035 2840 c-3 -5 -1 -10 4 -10 6 0 11 5 11 10 0 6 -2 10 -4 10 -3 0
-8 -4 -11 -10z"/>
<path d="M6976 2818 c3 -5 10 -6 15 -3 13 9 11 12 -6 12 -8 0 -12 -4 -9 -9z"/>
<path d="M6720 2810 c0 -5 -9 -10 -20 -10 -17 0 -20 -7 -20 -41 0 -39 -1 -40
-30 -35 -32 5 -51 -10 -26 -20 10 -4 16 -18 16 -35 0 -23 4 -29 22 -29 12 0
18 -3 14 -7 -16 -17 -37 -9 -51 18 -19 36 -22 36 -21 2 2 -34 14 -55 27 -47
14 8 51 -27 45 -43 -6 -15 10 -27 19 -13 11 17 28 11 21 -7 -4 -10 18 8 48 41
40 42 53 63 48 75 -7 14 -7 23 -3 55 0 5 10 1 21 -9 11 -10 23 -15 27 -11 4 4
1 11 -7 16 -11 7 -10 9 7 7 12 0 19 -5 17 -9 -12 -20 6 -4 49 41 45 48 46 50
20 47 -14 -2 -38 3 -52 10 -30 16 -171 19 -171 4z m203 -29 c10 -1 6 -13 -14
-34 -11 -12 -19 -15 -24 -8 -3 6 1 14 9 17 9 3 16 11 16 16 0 6 -6 8 -13 5 -8
-3 -14 1 -14 8 0 10 5 11 16 5 9 -4 19 -8 24 -9z m-143 -171 c-17 -22 -36 -38
-41 -34 -5 3 -9 -1 -9 -8 0 -9 -3 -9 -10 2 -13 20 -13 43 0 35 6 -4 8 -10 6
-14 -3 -4 1 -8 9 -8 12 0 12 4 -1 21 -21 30 -18 34 21 31 19 -1 35 2 35 7 0 4
5 8 11 8 6 0 -4 -18 -21 -40z"/>
<path d="M6740 2622 c0 -12 19 -26 26 -19 2 2 -2 10 -11 17 -9 8 -15 8 -15 2z"/>
<path d="M4049 2783 c-13 -16 -12 -17 4 -4 9 7 17 15 17 17 0 8 -8 3 -21 -13z"/>
<path d="M3969 2703 c-13 -16 -12 -17 4 -4 16 13 21 21 13 21 -2 0 -10 -8 -17
-17z"/>
<path d="M6818 2698 c15 -15 16 -31 0 -22 -7 4 -8 3 -4 -4 4 -6 13 -9 22 -5
13 5 13 8 -2 24 -9 11 -20 19 -23 19 -3 0 0 -5 7 -12z"/>
<path d="M3877 2683 c-12 -11 -8 -23 8 -23 8 0 15 7 15 15 0 16 -12 20 -23 8z"/>
<path d="M3720 2611 c0 -6 4 -13 10 -16 6 -3 7 1 4 9 -7 18 -14 21 -14 7z"/>
<path d="M3695 2580 c3 -5 8 -10 11 -10 2 0 4 5 4 10 0 6 -5 10 -11 10 -5 0
-7 -4 -4 -10z"/>
</g>
</svg>
